<?xml version="1.0" encoding="UTF-8"?> <svg xmlns="http://www.w3.org/2000/svg" width="210" height="74.666" viewBox="0 0 210 74.666"><g id="LOGO_" data-name="LOGO " transform="translate(0 0.04)"><path id="Контур_1" data-name="Контур 1" d="M200.946,200.236a33.046,33.046,0,1,0,21.066,58.51,28.5,28.5,0,1,1-1.135-51.817,32.887,32.887,0,0,0-19.931-6.693Zm25.884,15.606a24.4,24.4,0,1,0,7.142,17.256,24.4,24.4,0,0,0-7.142-17.256Zm-52.148-8.824A37.134,37.134,0,1,1,163.8,233.282,37.134,37.134,0,0,1,174.682,207.018Z" transform="translate(-163.8 -195.792)" fill="#fed22b" opacity="0.49"></path><path id="Контур_2" data-name="Контур 2" d="M274.83,217.379v.02a28.622,28.622,0,0,1,26.448,27.987v.408h0v.408a28.614,28.614,0,0,1-26.448,28v.061h-4.1v-56.88h2.328v-.049h.666c.29,0,.584.02.882.041Zm22.328,30.486H274.83v22.266c.817-.073,1.6-.176,2.376-.306a24.091,24.091,0,0,0,13.72-7.738,24.909,24.909,0,0,0,5.913-11.772A22.256,22.256,0,0,0,297.157,247.865ZM274.83,221.5v22.266h22.328a22.254,22.254,0,0,0-.319-2.45,24.908,24.908,0,0,0-5.913-11.78,24.136,24.136,0,0,0-13.72-7.73A22.633,22.633,0,0,0,274.83,221.5Z" transform="translate(-227.067 -208.326)" fill="#fed22b" fill-rule="evenodd"></path><path id="Контур_3" data-name="Контур 3" d="M203.018,195.2v74.316h-4.083v-.086a36.619,36.619,0,0,1-25.566-12.3c-6.223-6.942-9.645-15.925-9.543-24.194v-1.147c-.1-8.281,3.32-17.236,9.543-24.194a36.623,36.623,0,0,1,25.566-12.307v-.1h4.083Zm-4.1,70.143V234.421h-31c.033.7.086,1.4.176,2.111a33.321,33.321,0,0,0,8.3,17.881,32.581,32.581,0,0,0,20.27,10.731c.735.09,1.482.163,2.254.212Zm-31-35.035h31V199.386c-.772.041-1.519.114-2.254.216a32.5,32.5,0,0,0-20.27,10.727,33.284,33.284,0,0,0-8.3,17.873c-.09.719-.143,1.413-.176,2.119Z" transform="translate(-163.815 -195.22)" fill="#fed22b" fill-rule="evenodd"></path><path id="Контур_4" data-name="Контур 4" d="M368.52,270.536v-9.861h7.036a2.609,2.609,0,0,1,1.066.233,2.506,2.506,0,0,1,.894.58,3.164,3.164,0,0,1,.633.9,2.767,2.767,0,0,1,.233,1.115,2.654,2.654,0,0,1-.964,2.095,2.7,2.7,0,0,1,.964,2.111,2.809,2.809,0,0,1-.216,1.082,2.856,2.856,0,0,1-.6.882,3.139,3.139,0,0,1-.9.617,3.173,3.173,0,0,1-1.115.249Zm1.413-1.413h5.623a1.352,1.352,0,0,0,1-.408,1.425,1.425,0,0,0,0-2.013,1.351,1.351,0,0,0-1-.408h-5.615Zm0-4.226h5.623a1.347,1.347,0,0,0,1-.408,1.372,1.372,0,0,0,.408-1,1.421,1.421,0,0,0-1.413-1.413h-5.606Zm9.7,5.639v-9.861h1.413V264.9h7.048v-4.222h1.4v9.861h-1.4V266.31h-7.048v4.226Zm11.274,0v-9.861h9.841v1.413H392.3V264.9h7.04v1.413H392.3v2.813h8.444v1.413Zm10.972,0v-9.861h1.413v8.448h4.218v-8.448h1.4v8.448h4.222v-8.448h1.413v9.861Zm14.083,0v-9.861h1.4V264.9h7.052v-4.222h1.4v9.861h-1.4V266.31h-7.052v4.226Zm11.258,0v-9.861h1.4v7.816l7.068-7.816h1.4v9.861h-1.4v-7.95l-7.052,7.95Zm11.258,0v-9.861h1.413v7.816l7.035-7.816h1.417v9.861h-1.413v-7.95l-7.04,7.95Zm2.111-12.658H442a1.347,1.347,0,0,0,.408.98,1.364,1.364,0,0,0,1,.408,1.421,1.421,0,0,0,1.413-1.4h1.413a2.924,2.924,0,0,1-.817,1.944,2.8,2.8,0,0,1-.9.617,2.5,2.5,0,0,1-1.111.233,2.589,2.589,0,0,1-1.082-.216,2.4,2.4,0,0,1-.882-.6,2.755,2.755,0,0,1-.617-.878,3.088,3.088,0,0,1-.233-1.1Z" transform="translate(-284.927 -232.312)" fill="#fff"></path><path id="Контур_5" data-name="Контур 5" d="M594,274.521V264.66h7.052a2.613,2.613,0,0,1,1.062.216,3.16,3.16,0,0,1,.9.6,2.927,2.927,0,0,1,.616.9,2.748,2.748,0,0,1,.233,1.1,2.7,2.7,0,0,1-.947,2.111,2.711,2.711,0,0,1,.947,2.111,2.59,2.59,0,0,1-.216,1.082,2.935,2.935,0,0,1-.6.882,2.972,2.972,0,0,1-1.993.866Zm1.413-1.417h5.639a1.415,1.415,0,0,0,.988-2.409,1.413,1.413,0,0,0-1-.408h-5.631Zm0-4.222h5.639a1.393,1.393,0,0,0,1-.408,1.462,1.462,0,0,0,0-2.009,1.393,1.393,0,0,0-1-.408h-5.639Zm9.714,5.639V264.66h1.413v7.815l7.031-7.815h1.413v9.861h-1.413v-7.967l-7.031,7.967Zm10.555,0V273.1h1.4v-5.619a3.042,3.042,0,0,1,.216-1.082,3,3,0,0,1,.6-.878,2.9,2.9,0,0,1,.9-.633,2.753,2.753,0,0,1,1.115-.233h7.031V273.1h1.4v1.417ZM618.5,273.1h7.032v-7.031h-5.635a1.36,1.36,0,0,0-1.4,1.413Z" transform="translate(-418.336 -236.329)" fill="#fff"></path><path id="Контур_6" data-name="Контур 6" d="M368.52,302.994v-.755h5.333v.755h-2.278v4.553h-.751v-4.553Zm5.619,3.042v-2.287a1.569,1.569,0,0,1,.131-.6,1.473,1.473,0,0,1,.31-.466,2.086,2.086,0,0,1,.494-.339,1.552,1.552,0,0,1,.6-.106h2.262a1.409,1.409,0,0,1,.572.106,1.635,1.635,0,0,1,.494.339,1.446,1.446,0,0,1,.47,1.066v2.287a1.414,1.414,0,0,1-.131.572,1.259,1.259,0,0,1-.339.494,1.457,1.457,0,0,1-.47.314,1.192,1.192,0,0,1-.6.131h-2.279a1.458,1.458,0,0,1-.6-.106,1.685,1.685,0,0,1-.494-.339,1.428,1.428,0,0,1-.31-.465,1.674,1.674,0,0,1-.131-.6Zm.755,0a.662.662,0,0,0,.233.523.706.706,0,0,0,.547.233h2.262a.76.76,0,0,0,.547-.233.641.641,0,0,0,.208-.523v-2.287a.727.727,0,0,0-.208-.547.845.845,0,0,0-.547-.208h-2.279a.784.784,0,0,0-.547.208.751.751,0,0,0-.233.547Zm5.251,1.511v-5.308h3.8a1.4,1.4,0,0,1,.572.106,1.246,1.246,0,0,1,.494.339,1.56,1.56,0,0,1,.314.466,1.67,1.67,0,0,1,.155.6v.755a1.352,1.352,0,0,1-.131.572,1.691,1.691,0,0,1-.31.494,2.29,2.29,0,0,1-.494.335,1.5,1.5,0,0,1-.6.131H380.9v1.511Zm.755-2.291h3.042a.715.715,0,0,0,.755-.751v-.755a.727.727,0,0,0-.208-.547.817.817,0,0,0-.547-.208H380.9Zm5.174,2.291v-5.308h4.553v.755h-3.8v4.553Zm4.863-1.511v-2.287a1.225,1.225,0,0,1,.131-.6,1.487,1.487,0,0,1,.314-.466,1.586,1.586,0,0,1,.494-.339,1.4,1.4,0,0,1,.572-.106h2.287a1.4,1.4,0,0,1,.572.106,2.01,2.01,0,0,1,.494.339,2.141,2.141,0,0,1,.339.466,1.569,1.569,0,0,1,.131.6v2.287a1.417,1.417,0,0,1-.131.572,1.588,1.588,0,0,1-.339.494,1.485,1.485,0,0,1-.466.314,1.225,1.225,0,0,1-.6.131h-2.287a1.634,1.634,0,0,1-.6-.106,1.854,1.854,0,0,1-.817-.817,1.635,1.635,0,0,1-.106-.6Zm.755,0a.817.817,0,0,0,.755.755h2.287a.752.752,0,0,0,.547-.233.731.731,0,0,0,.208-.523v-2.287a.715.715,0,0,0-.755-.755h-2.287a.731.731,0,0,0-.523.208.751.751,0,0,0-.233.547Zm5.251,1.511v-5.308h3.8a1.479,1.479,0,0,1,.572.106,1.9,1.9,0,0,1,.494.31,3.418,3.418,0,0,1,.339.494,1.55,1.55,0,0,1,.106.6,1.506,1.506,0,0,1-.494,1.143,1.437,1.437,0,0,1,.494,1.143,1.4,1.4,0,0,1-.106.572,1.168,1.168,0,0,1-.339.47,1.192,1.192,0,0,1-.465.339,1.569,1.569,0,0,1-.6.131Zm.755-.755h3.042a.752.752,0,0,0,.547-.233.731.731,0,0,0,.208-.523.779.779,0,0,0-.208-.543.739.739,0,0,0-.547-.237h-3.034Zm0-2.287h3.042a.857.857,0,0,0,.547-.208.755.755,0,0,0-.547-1.3h-3.034Zm5.255,3.042v-5.308h.751v1.9h3.046a1.507,1.507,0,0,1,.572.106,1.854,1.854,0,0,1,.817.817,1.57,1.57,0,0,1,.131.6v.408a1.407,1.407,0,0,1-.106.572,1.78,1.78,0,0,1-.817.817,1.274,1.274,0,0,1-.6.131Zm.751-.755h3.046a.817.817,0,0,0,.751-.755v-.408a.751.751,0,0,0-.233-.547.727.727,0,0,0-.519-.208h-3.046Zm5.308.755v-5.308h.78v5.308Zm1.531,0v-5.308h5.308v.755H411.3V304.5h3.8v.751h-3.8v1.535h4.553v.755Zm8.893-1.511v-2.287a1.315,1.315,0,0,1,.445-1.066,1.38,1.38,0,0,1,.494-.339,1.4,1.4,0,0,1,.572-.106h2.287a1.4,1.4,0,0,1,.572.106,2.01,2.01,0,0,1,.494.339,1.487,1.487,0,0,1,.314.466,1.224,1.224,0,0,1,.131.6v2.287a1.4,1.4,0,0,1-.106.572,2.148,2.148,0,0,1-.339.494,1.3,1.3,0,0,1-.494.314,1.1,1.1,0,0,1-.572.131H420.95a1.315,1.315,0,0,1-1.066-.445,1.192,1.192,0,0,1-.339-.466A1.632,1.632,0,0,1,419.439,306.036Zm.755,0a.731.731,0,0,0,.208.523.752.752,0,0,0,.547.233h2.287a.752.752,0,0,0,.547-.233.731.731,0,0,0,.208-.523v-2.287a.715.715,0,0,0-.755-.755H420.95a.715.715,0,0,0-.755.755Zm5.178,0v-2.287a1.394,1.394,0,0,1,.1-.572,1.507,1.507,0,0,1,.339-.494,1.487,1.487,0,0,1,.465-.314,1.225,1.225,0,0,1,.6-.131h2.27a1.429,1.429,0,0,1,.576.106,1.475,1.475,0,0,1,.465.31,1.6,1.6,0,0,1,.339.494,1.568,1.568,0,0,1,.131.6H429.9a.715.715,0,0,0-.755-.755h-2.287a.715.715,0,0,0-.755.755v2.287a.731.731,0,0,0,.208.523.751.751,0,0,0,.547.233h2.287a.752.752,0,0,0,.547-.233.731.731,0,0,0,.208-.523h.755a1.478,1.478,0,0,1-.106.572,1.578,1.578,0,0,1-.335.47,1.463,1.463,0,0,1-1.07.47h-2.287a1.4,1.4,0,0,1-.572-.1,1.633,1.633,0,0,1-.494-.339,1.5,1.5,0,0,1-.323-.478,1.633,1.633,0,0,1-.1-.6Zm5.537-3.042v-.755h5.308v.755h-2.262v4.553H433.2v-4.553Zm5.717,4.553v-5.308h3.8a1.409,1.409,0,0,1,.572.106,1.279,1.279,0,0,1,.494.339,2.275,2.275,0,0,1,.339.466,2.379,2.379,0,0,1,.131.6v.755a1.354,1.354,0,0,1-.131.572,1.635,1.635,0,0,1-.314.494,2.1,2.1,0,0,1-.494.335,1.461,1.461,0,0,1-.6.131h-3.042v1.511Zm.755-2.291h3.042a.735.735,0,0,0,.547-.208.723.723,0,0,0,.2-.543v-.755a.723.723,0,0,0-.2-.547.845.845,0,0,0-.547-.208h-3.042Zm5.1.78v-2.287a1.569,1.569,0,0,1,.131-.6,1.476,1.476,0,0,1,.31-.466,1.689,1.689,0,0,1,.494-.339,1.552,1.552,0,0,1,.6-.106h2.262a1.41,1.41,0,0,1,.572.106,2.089,2.089,0,0,1,.494.339,1.446,1.446,0,0,1,.47,1.066v2.287a1.414,1.414,0,0,1-.131.572,1.263,1.263,0,0,1-.339.494,1.457,1.457,0,0,1-.47.314,1.192,1.192,0,0,1-.6.131h-2.262a1.457,1.457,0,0,1-.6-.106,1.38,1.38,0,0,1-.494-.339,1.429,1.429,0,0,1-.31-.465,1.674,1.674,0,0,1-.131-.6Zm.755,0a.662.662,0,0,0,.233.523.674.674,0,0,0,.547.233h2.262a.743.743,0,0,0,.543-.233.629.629,0,0,0,.208-.523v-2.287a.714.714,0,0,0-.208-.547.817.817,0,0,0-.543-.208h-2.262a.743.743,0,0,0-.547.208.751.751,0,0,0-.233.547Zm5.251,1.511v-5.308h3.8a1.408,1.408,0,0,1,.572.106,1.565,1.565,0,0,1,.494.31,3.775,3.775,0,0,1,.339.494,1.569,1.569,0,0,1,.131.6,1.519,1.519,0,0,1-.523,1.143,1.446,1.446,0,0,1,.523,1.143,1.413,1.413,0,0,1-.131.572,1.457,1.457,0,0,1-.314.47,1.507,1.507,0,0,1-.494.339,1.531,1.531,0,0,1-.6.131Zm.755-.755h3.042a.759.759,0,0,0,.547-.233.731.731,0,0,0,.208-.523.78.78,0,0,0-.208-.543.747.747,0,0,0-.547-.237h-3.042Zm0-2.287h3.042a.865.865,0,0,0,.547-.208.755.755,0,0,0-.547-1.3h-3.042Zm5.227,3.042v-3.8a1.4,1.4,0,0,1,.106-.572,1.446,1.446,0,0,1,.339-.494,2.046,2.046,0,0,1,.466-.339,1.551,1.551,0,0,1,.6-.106h2.287a1.4,1.4,0,0,1,.572.106,1.168,1.168,0,0,1,.47.339,1.226,1.226,0,0,1,.339.466,1.568,1.568,0,0,1,.131.6v3.8h-.755v-1.511h-3.8v1.511Zm.755-2.291h3.8v-1.507a.715.715,0,0,0-.755-.755h-2.287a.715.715,0,0,0-.755.755Z" transform="translate(-284.927 -258.563)" fill="#f8f9fa"></path><path id="Контур_7" data-name="Контур 7" d="M616.21,307.687v-5.308h3.8a1.42,1.42,0,0,1,.572.1,1.324,1.324,0,0,1,.494.339,2.043,2.043,0,0,1,.335.47,2.011,2.011,0,0,1,.131.6v.755a1.27,1.27,0,0,1-.131.572,1.564,1.564,0,0,1-.31.494,2.008,2.008,0,0,1-.494.339,1.564,1.564,0,0,1-.6.131h-3.046v1.507Zm.751-2.287h3.046a.715.715,0,0,0,.751-.755v-.755a.7.7,0,0,0-.208-.543.817.817,0,0,0-.543-.208h-3.046Zm5.1.78V303.89a1.6,1.6,0,0,1,.441-1.066,2.01,2.01,0,0,1,.494-.339,1.525,1.525,0,0,1,.6-.1h2.266a1.421,1.421,0,0,1,.572.1,1.686,1.686,0,0,1,.494.339,1.581,1.581,0,0,1,.335.47,1.462,1.462,0,0,1,.131.6v2.291a1.362,1.362,0,0,1-.131.572,1.31,1.31,0,0,1-.335.494,1.449,1.449,0,0,1-.469.31,1.169,1.169,0,0,1-.6.131h-2.266a1.453,1.453,0,0,1-.6-.1,1.378,1.378,0,0,1-.494-.339,1.447,1.447,0,0,1-.31-.47A1.572,1.572,0,0,1,622.061,306.181Zm.751,0a.646.646,0,0,0,.253.535.67.67,0,0,0,.543.233h2.266a.748.748,0,0,0,.543-.233.633.633,0,0,0,.208-.519v-2.291a.718.718,0,0,0-.208-.543.816.816,0,0,0-.543-.208h-2.266a.738.738,0,0,0-.543.208.731.731,0,0,0-.237.543Zm5.178,0h.751a.658.658,0,0,0,.237.519.674.674,0,0,0,.547.233h2.262a.743.743,0,0,0,.543-.233.621.621,0,0,0,.208-.519.674.674,0,0,0-.208-.547.743.743,0,0,0-.543-.233h-2.262a1.551,1.551,0,0,1-.6-.106,1.528,1.528,0,0,1-.8-.8,1.568,1.568,0,0,1-.131-.6,2.148,2.148,0,0,1,.1-.572,3.523,3.523,0,0,1,.339-.494,1.868,1.868,0,0,1,.494-.339,1.462,1.462,0,0,1,.6-.1h2.262a1.407,1.407,0,0,1,.572.1,1.984,1.984,0,0,1,.494.314,1.9,1.9,0,0,1,.31.494,1.484,1.484,0,0,1,.155.6h-.78a.7.7,0,0,0-.208-.543.817.817,0,0,0-.543-.208h-2.262a.751.751,0,0,0-.547,1.3.743.743,0,0,0,.547.208h2.262a1.428,1.428,0,0,1,.572.131,1.967,1.967,0,0,1,.506.306,1.767,1.767,0,0,1,.339.494,1.458,1.458,0,0,1,.127.6,1.538,1.538,0,0,1-.127.572,1.5,1.5,0,0,1-.314.465,1.445,1.445,0,0,1-.494.339,1.151,1.151,0,0,1-.6.131h-2.262a1.548,1.548,0,0,1-.6-.1,1.526,1.526,0,0,1-.47-.339,1.2,1.2,0,0,1-.335-.47,1.533,1.533,0,0,1-.131-.6ZM634,307.687v-5.308h.756l2.287,3.267,2.262-3.267h.78v5.308h-.78v-3.953L637.039,307l-2.287-3.267v3.953Z" transform="translate(-431.477 -258.646)" fill="#fed22b"></path></g></svg> 